{"title":"BBC.Earth.The.Power.of.the.Planet.BluRay.720p.x264.Kraki","uid":15913517,"size":2340454248,"categoryP":"video","categoryS":"tv_shows","magnet":"?xt=urn:btih:3ad04bce64d1ac2625cfd21d5fd83e4910c4f80e&amp;dn=BBC.Earth.The.Power.of.the.Planet.BluRay.720p.x264.Kraki&amp;tr=udp%3A%2F%2Ftracker.leechers-paradise.org%3A6969&amp;tr=udp%3A%2F%2Fzer0day.ch%3A1337&amp;tr=udp%3A%2F%2Fopen.demonii.com%3A1337&amp;tr=udp%3A%2F%2Ftracker.coppersurfer.tk%3A6969&amp;tr=udp%3A%2F%2Fexodus.desync.com%3A6969","seeders":0,"leechers":16,"uploader":"Kraki_Enc","files":5,"time":1475157086,"description":"Video\r\nID                             : 1\r\nFormat                         : AVC\r\nFormat/Info                    : Advanced Video Codec\r\nFormat profile                 :   \r\nFormat settings, CABAC         : Yes\r\nFormat settings, ReFrames      : 4 frames\r\nCodec ID                       : V_MPEG4/ISO/AVC\r\nDuration                       : 52 min\r\nBit rate                       : 1 072 kb/s\r\nWidth                          : 1 280 pixels\r\nHeight                         : 720 pixels\r\nDisplay aspect ratio           : 16:9\r\nFrame rate mode                : Constant\r\nFrame rate                     : 29.970 (30000/1001) FPS\r\nColor space                    : YUV\r\nChroma subsampling             : 4:2:0\r\nBit depth                      : 8 bits\r\nScan type                      : Progressive\r\nBits/(Pixel*Frame)             : 0.039\r\nStream size                    : 402 MiB (89%)\r\nWriting library                : x264 core 148 r2638 7599210\r\n\r\n\r\nAudio\r\nID                             : 2\r\nFormat                         : AC-3\r\nFormat/Info                    : Audio Coding 3\r\nMode extension                 : CM (complete main)\r\nFormat settings, Endianness    : Big\r\nCodec ID                       : A_AC3\r\nDuration                       : 52 min\r\nBit rate mode                  : Constant\r\nBit rate                       : 128 kb/s\r\nChannel(s)                     : 2 channels\r\nChannel positions              : Front: L R\r\nSampling rate                  : 48.0 kHz\r\nFrame rate                     : 31.250 FPS (1536 spf)\r\nCompression mode               : Lossy\r\nStream size                    : 48.0 MiB (11%)\r\nLanguage                       : English\r\nDefault                        : Yes\r\nForced                         : No","torrent":{"xt":"urn:btih:3ad04bce64d1ac2625cfd21d5fd83e4910c4f80e","amp;dn":"BBC.Earth.The.Power.of.the.Planet.BluRay.720p.x264.Kraki","amp;tr":["udp%3A%2F%2Ftracker.leechers-paradise.org%3A6969","udp%3A%2F%2Fzer0day.ch%3A1337","udp%3A%2F%2Fopen.demonii.com%3A1337","udp%3A%2F%2Ftracker.coppersurfer.tk%3A6969","udp%3A%2F%2Fexodus.desync.com%3A6969"],"infoHash":"3ad04bce64d1ac2625cfd21d5fd83e4910c4f80e","infoHashBuffer":{"type":"Buffer","data":[58,208,75,206,100,209,172,38,37,207,210,29,95,216,62,73,16,196,248,14]},"announce":[],"urlList":[]}}